<?xml version="1.0" encoding="utf-8"?>
<!-- Generator: Adobe Illustrator 15.1.0, SVG Export Plug-In . SVG Version: 6.00 Build 0)  -->
<!DOCTYPE svg PUBLIC "-//W3C//DTD SVG 1.0//EN" "http://www.w3.org/TR/2001/REC-SVG-20010904/DTD/svg10.dtd">
<svg version="1.0" id="Layer_1" xmlns="http://www.w3.org/2000/svg" xmlns:xlink="http://www.w3.org/1999/xlink" x="0px" y="0px"
	 width="416px" height="178px" viewBox="0 0 416 178" enable-background="new 0 0 416 178" xml:space="preserve">
<path display="none" stroke="#000000" stroke-width="7" stroke-miterlimit="10" d="M132.575,157.008
	c18.165,27.996,50.955,45.111,86.451,41.579c35.498-3.532,64.272-26.775,76.563-57.802L132.575,157.008z"/>
<path stroke="#000000" stroke-width="7" stroke-miterlimit="10" d="M200.783,15.262c-45.241,4.502-79.561,41.019-82.753,84.864
	l180.609-17.974C286.867,39.795,246.023,10.759,200.783,15.262z"/>
<path display="none" stroke="#000000" stroke-width="7" stroke-miterlimit="10" d="M301.568,97.803
	c-0.536-5.383-1.529-10.61-2.93-15.65L118.03,100.126c-0.38,5.217-0.323,10.538,0.212,15.921
	c1.505,15.126,6.592,29.031,14.333,40.961l163.015-16.223C300.827,127.563,303.074,112.93,301.568,97.803z"/>
<polygon fill="#FFFFFF" stroke="#000000" stroke-width="6" stroke-miterlimit="10" points="380.49,132.336 369.343,104.281 
	374.742,74.579 51.031,106.793 61.427,134.923 56.779,164.551 "/>
<text transform="matrix(0.9951 -0.099 0.099 0.9951 153.0303 83.5645)"><tspan x="0" y="0" fill="#FFFFFF" font-family="'Avenir-Roman'" font-size="32.8023">THIS</tspan><tspan x="69.276" y="0" fill="#FFFFFF" font-family="'Raanana'" font-size="32.8023"> </tspan><tspan x="78.037" y="0" fill="#FFFFFF" font-family="'Avenir-Roman'" font-size="32.8023">IS</tspan></text>
<text transform="matrix(0.9951 -0.099 0.099 0.9951 74.4922 150.6162)" font-family="'Avenir-Oblique'" font-size="48.3385">HAPPENING</text>
<line display="none" fill="none" stroke="#000000" stroke-width="0.5" stroke-miterlimit="10" x1="65.608" y1="227.382" x2="329.82" y2="-36.83"/>
<g id="icomoon-ignore">
	<line fill="none" stroke="#479FD8" x1="221.492" y1="107.5" x2="221.492" y2="107.5"/>
</g>
</svg>
