<?xml version="1.0" encoding="utf-8"?>
<!-- Generator: Adobe Illustrator 15.1.0, SVG Export Plug-In . SVG Version: 6.00 Build 0)  -->
<!DOCTYPE svg PUBLIC "-//W3C//DTD SVG 1.0//EN" "http://www.w3.org/TR/2001/REC-SVG-20010904/DTD/svg10.dtd">
<svg version="1.0" id="Layer_1" xmlns="http://www.w3.org/2000/svg" xmlns:xlink="http://www.w3.org/1999/xlink" x="0px" y="0px"
	 width="416px" height="179.333px" viewBox="0 0 416 179.333" enable-background="new 0 0 416 179.333" xml:space="preserve">
<path display="none" stroke="#000000" stroke-width="7" stroke-miterlimit="10" d="M115.374,158.341
	c18.165,27.996,50.955,45.111,86.451,41.58c35.498-3.533,64.272-26.775,76.563-57.802L115.374,158.341z"/>
<path stroke="#000000" stroke-width="7" stroke-miterlimit="10" d="M210.249,14.595c-45.241,4.502-79.561,41.019-82.753,84.864
	l180.609-17.974C296.333,39.128,255.489,10.092,210.249,14.595z"/>
<path display="none" stroke="#000000" stroke-width="7" stroke-miterlimit="10" d="M284.367,99.136
	c-0.536-5.383-1.529-10.61-2.93-15.65l-180.609,17.974c-0.38,5.217-0.323,10.538,0.212,15.921
	c1.505,15.126,6.592,29.031,14.333,40.961l163.015-16.223C283.626,128.896,285.873,114.263,284.367,99.136z"/>
<polyline fill="#FFFFFF" stroke="#000000" stroke-width="6" stroke-miterlimit="10" points="330.799,79.769 33.83,108.126 
	44.226,136.256 39.578,165.884 363.289,133.669 "/>
<text transform="matrix(0.9951 -0.099 0.099 0.9951 162.6548 81.6245)"><tspan x="0" y="0" fill="#FFFFFF" font-family="'Avenir-Roman'" font-size="32.8023">THIS</tspan><tspan x="69.278" y="0" fill="#FFFFFF" font-family="'Raanana'" font-size="32.8023"> </tspan><tspan x="78.037" y="0" fill="#FFFFFF" font-family="'Avenir-Roman'" font-size="32.8023">IS</tspan></text>
<text transform="matrix(0.9951 -0.099 0.099 0.9951 60.7104 150.4771)" font-family="'Avenir-Oblique'" font-size="43">HAPPENING</text>
<line display="none" fill="none" stroke="#000000" stroke-width="0.5" stroke-miterlimit="10" x1="48.407" y1="228.715" x2="312.619" y2="-35.497"/>
<g id="icomoon-ignore">
	<line fill="none" stroke="#479FD8" x1="204.291" y1="108.833" x2="204.291" y2="108.833"/>
</g>
<path fill="#010101" d="M357.478,77.298c-2.968,0-5.369,2.402-5.369,5.369c0,2.966,2.401,5.369,5.369,5.369s5.369-2.403,5.369-5.369
	C362.847,79.701,360.445,77.298,357.478,77.298z M384.323,93.406l-10.738,10.738v-5.369c0-2.568-1.804-4.717-4.216-5.244
	c2.617-2.863,4.216-6.676,4.216-10.863c0-8.896-7.209-16.107-16.107-16.107c-8.483,0-15.436,6.558-16.062,14.883
	c-2.855-2.574-6.636-4.145-10.783-4.145c-8.896,0-16.107,7.211-16.107,16.107c0,8.896,7.211,16.107,16.107,16.107h-5.369v10.738
	h5.369v10.738c0,2.967,2.402,5.369,5.369,5.369h32.214c2.968,0,5.369-2.402,5.369-5.369v-5.369l10.738,10.738h5.369V93.406H384.323z
	 M330.633,88.037c-2.967,0-5.369,2.402-5.369,5.369c0,2.966,2.402,5.369,5.369,5.369v5.369c-5.931,0-10.738-4.809-10.738-10.738
	c0-5.931,4.808-10.738,10.738-10.738c5.93,0,10.738,4.808,10.738,10.738h-5.369C336.002,90.439,333.599,88.037,330.633,88.037z
	 M357.478,120.251H346.74v-10.738h10.737V120.251z M368.216,111.089c-2.812-2.814-5.894-5.898-6.155-6.158
	c-0.487-0.486-1.159-0.787-1.898-0.787h-16.107c-1.48,0-2.684,1.203-2.684,2.684v16.107c0,0.697,0.266,1.336,0.703,1.812
	c0.045,0.049,3.282,3.285,6.241,6.242h-9.632c-1.482,0-2.685-1.203-2.685-2.686v-26.846c0-1.48,1.202-2.684,2.685-2.684h26.846
	c1.48,0,2.684,1.203,2.684,2.684v9.631H368.216z M357.478,93.406c-5.93,0-10.737-4.809-10.737-10.738
	c0-5.931,4.808-10.738,10.737-10.738c5.931,0,10.738,4.808,10.738,10.738C368.216,88.597,363.408,93.406,357.478,93.406z
	 M384.323,120.251l-5.369-5.369l0.008-10.746l5.361-5.361V120.251z"/>
</svg>
