<?xml version="1.0" encoding="utf-8"?>
<!-- Generator: Adobe Illustrator 15.1.0, SVG Export Plug-In . SVG Version: 6.00 Build 0)  -->
<!DOCTYPE svg PUBLIC "-//W3C//DTD SVG 1.1//EN" "http://www.w3.org/Graphics/SVG/1.1/DTD/svg11.dtd">
<svg version="1.1" id="Layer_1" xmlns="http://www.w3.org/2000/svg" xmlns:xlink="http://www.w3.org/1999/xlink" x="0px" y="0px"
	 width="203px" height="124px" viewBox="0 0 203 124" enable-background="new 0 0 203 124" xml:space="preserve">
<g id="Layer_3" display="none">
	<g id="Layer_2" display="inline">
		<g>
			<g>
				<polygon fill="#383433" points="33.541,21.935 52.9,9 44.828,34.734 12.5,43.992 20.574,9 				"/>
				<polygon fill="#383433" points="45.635,116.809 192.5,76.809 175.135,44.897 30.584,84.896 				"/>
				<g display="none">
					<g display="inline">
						<path fill="#FFFFFF" d="M61.023,101.986l-0.014-0.639c0.768-0.246,1.311-0.476,1.621-0.677c0.314-0.196,0.52-0.465,0.617-0.78
							c0.098-0.322,0.139-0.824,0.123-1.507l-0.111-5.062l-8.209,2.221l0.105,4.809c0.014,0.568,0.045,0.996,0.094,1.273
							c0.049,0.275,0.148,0.482,0.303,0.619c0.154,0.133,0.381,0.197,0.678,0.193c0.299-0.004,0.756-0.062,1.373-0.172l0.015,0.641
							l-7.711,2.086l-0.015-0.641c0.553-0.166,0.978-0.314,1.271-0.457c0.295-0.138,0.527-0.312,0.697-0.521
							s0.283-0.472,0.344-0.778c0.059-0.312,0.082-0.729,0.07-1.261l-0.238-10.89c-0.018-0.741-0.199-1.182-0.547-1.313
							c-0.348-0.137-0.99-0.1-1.932,0.117l-0.015-0.64l7.713-2.086l0.015,0.64c-0.763,0.215-1.308,0.442-1.636,0.688
							c-0.327,0.246-0.528,0.549-0.606,0.912c-0.076,0.359-0.107,0.922-0.092,1.672l0.094,4.248l8.209-2.225l-0.107-4.875
							c-0.012-0.568-0.086-0.971-0.223-1.191c-0.137-0.227-0.363-0.338-0.682-0.352c-0.316-0.006-0.834,0.062-1.552,0.199
							L60.661,85.6l7.711-2.086l0.015,0.641c-0.771,0.229-1.312,0.451-1.63,0.66c-0.315,0.213-0.521,0.5-0.612,0.865
							c-0.092,0.369-0.131,0.948-0.113,1.748l0.225,10.121c0.014,0.635,0.072,1.104,0.174,1.399
							c0.104,0.299,0.326,0.479,0.664,0.538c0.338,0.062,0.879-0.021,1.627-0.233l0.014,0.64L61.023,101.986z M52.421,90.441
							l0.244,11.086c0.015,0.672-0.054,1.168-0.201,1.481c-0.146,0.314-0.334,0.584-0.562,0.804l0.336-0.095
							c0.445-0.116,0.756-0.383,0.928-0.778c0.174-0.402,0.252-0.957,0.236-1.67l-0.229-10.412
							c-0.019-0.744-0.057-1.277-0.116-1.603c-0.061-0.317-0.201-0.53-0.421-0.639c-0.219-0.104-0.573-0.074-1.065,0.09
							c0.295,0.074,0.508,0.229,0.637,0.463C52.336,89.408,52.407,89.83,52.421,90.441z M63.511,87.277l0.255,11.504
							c0.012,0.572-0.045,0.99-0.17,1.254c-0.128,0.266-0.332,0.525-0.621,0.781l0.381-0.104c0.416-0.11,0.713-0.312,0.893-0.604
							c0.18-0.289,0.264-0.69,0.252-1.213l-0.254-11.516c-0.016-0.713-0.096-1.221-0.242-1.521
							c-0.146-0.305-0.488-0.383-1.027-0.233l-0.334,0.09c0.326,0.062,0.549,0.205,0.672,0.438
							C63.434,86.385,63.499,86.76,63.511,87.277z"/>
						<path fill="#FFFFFF" d="M71.8,82.598l7.689-2.08l0.014,0.642c-0.724,0.211-1.28,0.457-1.674,0.735
							c-0.394,0.279-0.599,0.688-0.617,1.226c-0.008,0.33-0.019,0.592-0.028,0.782c-0.013,0.193-0.019,0.279-0.019,0.259l0.235,10.7
							c0.011,0.455,0.066,0.807,0.168,1.053c0.103,0.244,0.242,0.4,0.423,0.471c0.18,0.066,0.385,0.092,0.616,0.07
							c0.232-0.02,0.642-0.086,1.228-0.195l0.015,0.639l-7.688,2.08l-0.015-0.641c0.685-0.191,1.199-0.402,1.547-0.635
							c0.349-0.229,0.568-0.508,0.668-0.836c0.097-0.324,0.14-0.811,0.123-1.463l-0.227-10.367
							c-0.014-0.619-0.055-1.066-0.117-1.352c-0.063-0.281-0.18-0.47-0.344-0.56c-0.164-0.088-0.383-0.117-0.658-0.096
							c-0.275,0.021-0.717,0.09-1.326,0.198L71.8,82.598z M74.632,84.598l0.254,11.562c0.009,0.396-0.055,0.703-0.188,0.926
							c-0.136,0.227-0.371,0.477-0.705,0.752c0.5-0.15,0.901-0.344,1.207-0.576c0.305-0.234,0.45-0.604,0.438-1.117l-0.27-12.313
							c-0.012-0.522-0.129-0.894-0.35-1.099c-0.222-0.205-0.652-0.209-1.289-0.016c0.59,0.152,0.896,0.66,0.916,1.527
							c0.002,0.062,0,0.119-0.002,0.174C74.643,84.475,74.639,84.533,74.632,84.598z"/>
						<path fill="#FFFFFF" d="M88.536,87.061l0.106,4.92c0.01,0.465,0.086,0.808,0.228,1.021c0.141,0.215,0.328,0.348,0.562,0.389
							c0.232,0.043,0.561,0.021,0.985-0.062c0.422-0.082,0.815-0.166,1.178-0.248l0.017,0.639l-8.396,2.271l-0.014-0.64
							c0.623-0.188,1.09-0.35,1.399-0.483c0.311-0.138,0.556-0.31,0.732-0.515c0.178-0.203,0.295-0.438,0.355-0.696
							c0.061-0.263,0.086-0.605,0.076-1.031L85.54,82.396c-0.021-0.854-0.07-1.443-0.149-1.779c-0.08-0.338-0.308-0.539-0.677-0.611
							c-0.369-0.068-0.983,0.014-1.846,0.244l-0.017-0.641l7.943-2.146c0.355-0.096,1.203-0.266,2.545-0.502
							c0.432-0.078,0.893-0.074,1.387,0.01c0.494,0.088,0.959,0.26,1.396,0.521c0.437,0.26,0.789,0.61,1.062,1.055
							c0.273,0.445,0.416,0.972,0.43,1.572c0.015,0.674-0.104,1.315-0.358,1.93c-0.252,0.613-0.649,1.191-1.19,1.736
							c-0.543,0.545-1.229,1.034-2.06,1.479c-0.831,0.443-1.799,0.813-2.907,1.112L88.536,87.061z M85.907,82.154l0.239,10.91
							c0.017,0.731-0.254,1.303-0.811,1.703l0.301-0.082c0.855-0.23,1.273-0.752,1.256-1.564L86.659,82.5
							c-0.021-0.953-0.041-1.572-0.06-1.865c-0.018-0.289-0.074-0.527-0.168-0.713c-0.092-0.186-0.254-0.295-0.481-0.33
							c-0.227-0.035-0.58-0.01-1.05,0.078c0.312,0.064,0.529,0.174,0.656,0.324c0.127,0.152,0.215,0.395,0.262,0.725
							C85.864,81.047,85.895,81.527,85.907,82.154z M88.521,86.422l1.617-0.438c0.979-0.267,1.786-0.604,2.428-1.017
							c0.643-0.409,1.131-0.94,1.465-1.602c0.332-0.654,0.49-1.453,0.469-2.396c-0.031-1.418-0.527-2.352-1.49-2.797
							c-0.383-0.178-0.768-0.258-1.154-0.235c-0.387,0.021-0.864,0.104-1.434,0.262c-0.654,0.178-1.125,0.396-1.41,0.658
							c-0.283,0.266-0.459,0.596-0.523,0.981c-0.063,0.392-0.09,0.949-0.073,1.679L88.521,86.422z M92.939,85.1
							c0.922-0.393,1.603-0.94,2.043-1.664c0.441-0.719,0.648-1.623,0.625-2.713c-0.024-1.152-0.274-1.957-0.75-2.408
							c-0.475-0.446-1.176-0.646-2.104-0.592c0.443,0.104,0.824,0.299,1.141,0.576c0.314,0.281,0.556,0.646,0.72,1.092
							c0.165,0.445,0.254,0.955,0.268,1.527C94.921,82.76,94.273,84.152,92.939,85.1z"/>
						<path fill="#FFFFFF" d="M101.979,84.977l0.765-0.207c0.447,1.107,0.98,2,1.596,2.67c0.616,0.67,1.279,1.109,1.992,1.322
							s1.455,0.215,2.227,0.006c0.963-0.262,1.777-0.785,2.449-1.572c0.674-0.786,0.996-1.653,0.979-2.6
							c-0.021-0.885-0.262-1.51-0.729-1.877c-0.465-0.369-1.016-0.566-1.648-0.596c-0.637-0.023-1.471,0.018-2.506,0.125
							s-1.771,0.146-2.205,0.117c-0.674-0.053-1.25-0.219-1.729-0.496c-0.479-0.279-0.846-0.67-1.104-1.174
							c-0.252-0.504-0.391-1.08-0.4-1.73c-0.014-0.617,0.08-1.242,0.283-1.875c0.201-0.633,0.494-1.221,0.879-1.768
							c0.383-0.549,0.854-1.025,1.414-1.438c0.56-0.407,1.186-0.702,1.879-0.895c0.5-0.138,1.111-0.229,1.846-0.283
							c0.732-0.056,1.266-0.125,1.598-0.213c0.414-0.111,0.806-0.312,1.172-0.603l0.875-0.233l0.604,4.639l-0.809,0.222
							c-0.787-1.226-1.604-2.095-2.445-2.613c-0.844-0.523-1.823-0.635-2.938-0.334c-0.554,0.147-1.062,0.42-1.539,0.809
							c-0.471,0.391-0.846,0.852-1.123,1.387c-0.275,0.531-0.412,1.074-0.396,1.625c0.02,0.773,0.291,1.297,0.822,1.562
							c0.529,0.271,1.312,0.367,2.348,0.299c1.033-0.066,1.957-0.139,2.771-0.213c0.813-0.07,1.463-0.057,1.947,0.047
							c0.887,0.195,1.578,0.611,2.082,1.246c0.502,0.637,0.764,1.438,0.782,2.404c0.021,0.928-0.185,1.854-0.608,2.779
							c-0.433,0.928-1.043,1.735-1.844,2.438c-0.798,0.7-1.689,1.188-2.685,1.457c-0.562,0.147-0.988,0.228-1.271,0.215
							c-0.287-0.008-0.779-0.041-1.479-0.104c-0.697-0.061-1.229-0.041-1.601,0.062c-0.615,0.166-1.104,0.535-1.451,1.104
							l-0.658,0.18L101.979,84.977z M102.198,77.455c-0.117,0.623-0.175,1.117-0.166,1.48c0.01,0.41,0.088,0.805,0.235,1.18
							c0.146,0.377,0.356,0.713,0.637,1.008c0.279,0.295,0.589,0.514,0.933,0.654c0.461,0.186,0.968,0.268,1.517,0.248
							c0.549-0.021,1.354-0.084,2.405-0.195c1.056-0.107,1.783-0.137,2.188-0.084c0.744,0.072,1.328,0.33,1.754,0.775
							c0.424,0.44,0.645,1.045,0.66,1.795c0.012,0.557-0.133,1.188-0.438,1.893c0.617-0.83,0.916-1.684,0.896-2.564
							c-0.021-0.914-0.269-1.565-0.742-1.965c-0.479-0.396-1.062-0.627-1.76-0.688c-0.691-0.064-1.642-0.046-2.84,0.063
							c-1.193,0.109-1.812,0.166-1.843,0.166c-1.1,0.01-1.938-0.264-2.521-0.812c-0.58-0.554-0.881-1.287-0.9-2.209
							c-0.004-0.17-0.01-0.312-0.018-0.429C102.191,77.656,102.191,77.551,102.198,77.455z M102.409,87.033l0.067,3.098
							c0.217-0.354,0.418-0.6,0.604-0.734c0.188-0.137,0.479-0.25,0.867-0.34c-0.262-0.229-0.447-0.406-0.562-0.521
							c-0.115-0.113-0.262-0.287-0.432-0.522C102.786,87.773,102.604,87.447,102.409,87.033z M110.9,75.008l-0.43-2.113
							c-0.256,0.154-0.51,0.269-0.764,0.334c-0.273,0.074-0.578,0.113-0.898,0.115c0.312,0.117,0.586,0.271,0.818,0.453
							c0.234,0.188,0.484,0.418,0.748,0.697C110.641,74.773,110.812,74.945,110.9,75.008z"/>
						<path fill="#FFFFFF" d="M117.573,70.213l14.676-3.969l0.914,3.605l-0.83,0.225c-0.615-0.838-1.25-1.402-1.906-1.691
							c-0.657-0.287-1.272-0.402-1.85-0.34c-0.578,0.062-1.324,0.211-2.25,0.445l0.291,13.197c0.012,0.51,0.102,0.879,0.271,1.102
							c0.166,0.225,0.438,0.336,0.812,0.336c0.367,0,0.889-0.078,1.551-0.232l0.018,0.644l-8.096,2.188l-0.02-0.642
							c0.674-0.195,1.186-0.39,1.539-0.572c0.354-0.188,0.621-0.44,0.795-0.772c0.18-0.33,0.26-0.799,0.242-1.402l-0.287-13.059
							c-0.83,0.229-1.553,0.512-2.166,0.836c-0.607,0.326-1.123,0.682-1.529,1.062c-0.408,0.386-0.746,0.767-1.018,1.146
							c-0.267,0.38-0.652,0.967-1.174,1.763l-0.705,0.188L117.573,70.213z M119.734,70.271l-1.868,0.506l-0.406,2.094
							c0.381-0.625,0.713-1.104,1.002-1.434C118.749,71.107,119.173,70.721,119.734,70.271z M124.846,81.76l-0.253-11.412
							c-0.01-0.449-0.067-0.771-0.178-0.969c-0.108-0.195-0.308-0.268-0.592-0.213l0.29,13.197c0.011,0.479-0.038,0.879-0.147,1.195
							c-0.108,0.313-0.317,0.629-0.631,0.93l0.256-0.068c0.562-0.15,0.914-0.426,1.062-0.822
							C124.799,83.199,124.861,82.584,124.846,81.76z M131.829,68.867l-0.562-1.717l-2.17,0.588c0.59,0.027,1.084,0.135,1.479,0.322
							C130.98,68.248,131.396,68.518,131.829,68.867z"/>
						<path fill="#FFFFFF" d="M141.466,72.076l0.113,5.107c0.012,0.562,0.062,0.987,0.149,1.282
							c0.086,0.291,0.236,0.482,0.459,0.574c0.22,0.094,0.525,0.104,0.937,0.033c0.405-0.072,0.957-0.201,1.658-0.394
							c0.848-0.229,1.604-0.562,2.271-1.006c0.668-0.441,1.293-0.996,1.879-1.664c0.586-0.67,1.228-1.521,1.912-2.557l0.924-0.25
							l-1.35,4.594l-14.213,3.844l-0.014-0.639c0.684-0.201,1.205-0.4,1.561-0.604c0.355-0.205,0.605-0.445,0.75-0.729
							s0.213-0.651,0.203-1.103l-0.254-11.479c-0.012-0.543-0.088-0.918-0.232-1.127c-0.145-0.211-0.383-0.313-0.715-0.313
							c-0.334,0.002-0.883,0.084-1.645,0.252l-0.014-0.64l13.646-3.689l1.479,3.323l-0.832,0.227
							c-0.459-0.439-1.021-0.811-1.668-1.098c-0.652-0.283-1.384-0.461-2.187-0.521c-0.81-0.062-1.646,0.023-2.533,0.27
							c-0.694,0.188-1.229,0.404-1.571,0.65c-0.354,0.246-0.582,0.521-0.689,0.82c-0.111,0.305-0.16,0.674-0.15,1.113l0.111,5.062
							l2.32-0.629c2.021-0.547,3.022-1.756,3.01-3.627l0.809-0.22l0.135,6.148l-0.717,0.193c-0.113-0.92-0.391-1.533-0.836-1.848
							c-0.443-0.312-1.113-0.349-2.006-0.104L141.466,72.076z M138.835,67.09l0.248,11.225c0.013,0.564-0.043,0.998-0.17,1.297
							c-0.125,0.302-0.315,0.572-0.572,0.82c0.638-0.182,1.048-0.461,1.229-0.842c0.181-0.381,0.264-0.938,0.248-1.674
							l-0.248-11.234c-0.014-0.658-0.135-1.062-0.363-1.217c-0.229-0.152-0.625-0.158-1.195-0.02
							c0.287,0.078,0.494,0.229,0.619,0.457C138.755,66.127,138.823,66.523,138.835,67.09z M146.734,71.41l-0.051-2.275
							c-0.287,0.602-0.826,1.127-1.613,1.582c0.427,0.002,0.765,0.051,1.015,0.146C146.335,70.957,146.552,71.143,146.734,71.41z
							 M148.421,62.514l-2.09,0.562c0.582,0.037,1.101,0.133,1.553,0.281c0.451,0.146,0.933,0.346,1.439,0.592L148.421,62.514z
							 M149.251,77.479l0.752-2.233c-0.444,0.616-0.849,1.103-1.211,1.44c-0.365,0.347-0.883,0.791-1.551,1.336L149.251,77.479z"/>
						<path fill="#FFFFFF" d="M162.604,74.51l-8,2.164l-0.014-0.639c0.746-0.219,1.299-0.428,1.658-0.631
							c0.359-0.201,0.604-0.457,0.732-0.764c0.127-0.312,0.186-0.752,0.174-1.332l-0.238-10.847
							c-0.014-0.619-0.082-1.062-0.205-1.336c-0.121-0.27-0.361-0.418-0.723-0.443c-0.361-0.027-0.938,0.055-1.732,0.246
							l-0.014-0.639l9.109-2.465c1.146-0.311,2.149-0.383,3.021-0.215c0.866,0.166,1.524,0.521,1.976,1.064
							c0.448,0.545,0.686,1.199,0.698,1.965c0.013,0.504-0.078,1.02-0.269,1.551c-0.188,0.527-0.469,1.039-0.838,1.527
							s-0.817,0.941-1.35,1.361c-0.525,0.42-1.146,0.781-1.854,1.092c0.543,0.393,1.215,0.969,2.014,1.729l1.172,1.053
							c0.062,0.053,0.146,0.115,0.238,0.195s0.217,0.184,0.363,0.307c0.381,0.352,0.697,0.635,0.961,0.854
							c0.262,0.223,0.52,0.414,0.771,0.578c0.254,0.163,0.504,0.286,0.745,0.362c0.24,0.078,0.496,0.121,0.769,0.125l0.02,0.642
							l-2.17,0.586c-0.494,0.135-0.961,0.147-1.404,0.047c-0.441-0.103-0.872-0.299-1.281-0.592
							c-0.414-0.293-0.889-0.699-1.416-1.218l-1.662-1.631c-0.771-0.771-1.34-1.299-1.713-1.571c-0.373-0.275-0.695-0.38-0.968-0.31
							l-1.278,0.351l0.105,4.922c0.014,0.483,0.08,0.854,0.209,1.102c0.13,0.242,0.4,0.373,0.822,0.385
							c0.226,0,0.496-0.021,0.818-0.068c0.324-0.051,0.568-0.102,0.729-0.147L162.604,74.51z M157.284,62.273l0.252,11.458
							c0.016,0.729-0.238,1.303-0.765,1.715c1.008-0.297,1.504-0.82,1.482-1.58L158,62.148c-0.014-0.596-0.057-1.035-0.127-1.324
							c-0.072-0.287-0.229-0.475-0.467-0.557c-0.238-0.084-0.598-0.049-1.084,0.105c0.406,0.07,0.662,0.236,0.771,0.498
							C157.206,61.133,157.27,61.602,157.284,62.273z M159.771,61.811l0.11,5.234l1.871-0.506c0.629-0.17,1.252-0.441,1.863-0.812
							c0.606-0.371,1.065-0.754,1.379-1.146c0.618-0.771,0.914-1.765,0.887-2.982c-0.026-1.447-0.543-2.381-1.53-2.797
							c-0.354-0.145-0.722-0.205-1.101-0.182c-0.381,0.023-0.856,0.117-1.44,0.273c-0.599,0.162-1.041,0.361-1.345,0.602
							c-0.303,0.242-0.491,0.537-0.586,0.881C159.796,60.721,159.757,61.199,159.771,61.811z M162.913,66.871l-0.947,0.256
							c0.281,0.135,0.611,0.359,0.984,0.68c0.377,0.316,0.85,0.76,1.418,1.32c0.569,0.562,1.146,1.137,1.723,1.719
							c0.529,0.521,1.019,0.896,1.466,1.127c0.444,0.234,0.84,0.355,1.186,0.363c0.34,0.012,0.699-0.029,1.088-0.117
							c-0.479-0.104-0.947-0.301-1.396-0.588s-0.934-0.676-1.449-1.16c-0.52-0.486-1.053-1.002-1.604-1.547
							s-1.113-1.045-1.697-1.504c-0.08-0.086-0.178-0.182-0.291-0.285C163.273,67.027,163.116,66.939,162.913,66.871z
							 M163.913,65.898c1.028-0.41,1.812-1.015,2.354-1.808c0.539-0.791,0.799-1.738,0.771-2.838
							c-0.021-1.066-0.287-1.852-0.795-2.348c-0.511-0.498-1.218-0.688-2.127-0.574c0.698,0.168,1.229,0.504,1.586,1.014
							c0.354,0.508,0.543,1.26,0.563,2.26c0.021,1.051-0.162,1.895-0.557,2.534C165.322,64.773,164.725,65.361,163.913,65.898z"/>
					</g>
				</g>
				<polygon fill="#383433" points="28.111,79.262 174.979,39.263 157.613,7.351 13.062,47.351 				"/>
				<polygon fill="#383433" points="171.947,101.809 152.912,115.213 160.354,89.291 192.5,80.4 185.229,114.428 				"/>
				<g display="none">
					<g display="inline">
						<path fill="#FFFFFF" d="M45.407,64.602l-6.945,1.877l-2.976-2.141l-0.219-9.909l2.849-3.718l6.942-1.877l2.978,2.14
							l0.219,9.911L45.407,64.602z M43.6,54.101l-0.47-0.778l-0.903-0.209l-1.121,0.305l-0.888,0.691l-0.428,1.021l0.129,5.855
							l0.47,0.779l0.905,0.209l1.119-0.305l0.887-0.693l0.429-1.021L43.6,54.101z"/>
						<path fill="#FFFFFF" d="M61.757,60.18l-1.791-4.614l-0.452-0.104l-1.23,0.332l-0.221,0.287l0.071,3.268l0.601,1.648
							L53.36,62.45l0.52-1.953l-0.268-12.162l-0.6-1.649l9.743-2.636l2.978,2.142l0.098,4.391l-1.973,2.572l1.662,3.854l1.278,1.807
							L61.757,60.18z M61.407,49.397l-0.468-0.78l-0.905-0.207l-1.904,0.514l-0.219,0.287l0.062,2.813l0.229,0.164l1.903-0.514
							l0.886-0.693l0.43-1.021L61.407,49.397z"/>
						<path fill="#FFFFFF" d="M71.055,57.664l0.52-1.953l-0.268-12.162L70.706,41.9l5.487-1.484l-0.521,1.953l0.269,12.162l0.6,1.65
							L71.055,57.664z"/>
						<path fill="#FFFFFF" d="M93.516,44.111l0.073,3.379l0.248,1.062l-2.848,3.715l-6.496,1.759l-2.976-2.142L81.304,42.2
							l3.064-4.002l7.168-1.939l1.625,4.205l-2.707-0.174L87.7,41.039l-1.328,1.039l-0.535,1.278l0.113,5.181l0.469,0.778
							l0.906,0.207l1.454-0.393l0.656-0.857l-0.057-2.59l-1.053-1.756l5.938-1.604L93.516,44.111z"/>
						<path fill="#FFFFFF" d="M98.493,50.24l0.521-1.953l-0.268-12.162l-0.6-1.65l5.485-1.484l-0.521,1.953l0.271,12.162
							l0.604,1.649L98.493,50.24z"/>
						<path fill="#FFFFFF" d="M121.482,29.975l0.308,13.965l-3.024,0.818l-5.105-7l-0.479-1.007l0.139,1.097l0.146,6.53l0.604,1.65
							l-4.928,1.334l0.521-1.953l-0.269-12.162l-0.717-1.621l4.816-1.303l4.062,5.584l0.473,1.006l-0.137-1.099l-0.104-4.841
							l-0.604-1.65l4.815-1.303L121.482,29.975z"/>
						<path fill="#FFFFFF" d="M135.118,40.334l0.184-1.86l-0.364-1.263l-0.229-0.164l-3.693,1l-0.221,0.285l-0.309,1.442l0.266,1.74
							l-5.15,1.394l0.854-2.043l2.86-13.348l-0.366-1.373l7.614-2.061l-0.307,1.555l3.41,11.65l0.938,1.561L135.118,40.334z
							 M132.773,29.072l-0.131-0.756l-0.098,0.818l-1.014,5.145l0.229,0.164l2.016-0.545L134,33.613L132.773,29.072z"/>
						<path fill="#FFFFFF" d="M153.036,35.486l-9.185,2.483l0.521-1.953l-0.269-12.162l-0.604-1.65l5.604-1.514l-0.629,2.207
							l0.211,9.572l0.344,0.246l3.138-0.848l2.289-1.412L153.036,35.486z"/>
					</g>
				</g>
				<g display="none">
					<g display="inline">
						<path fill="#383433" d="M62.525,18.818h-1.373v3.994h-1.625v-9.984h3.341c0.612,0,1.084,0.49,1.084,1.051v3.205
							c0,0.438-0.234,0.771-0.562,0.858c0.488,0.105,0.758,0.596,0.758,1.034v3.836h-1.623V18.818z M61.152,17.242h1.175v-2.838
							h-1.175V17.242z"/>
						<path fill="#383433" d="M71.136,22.812h-4.188v-9.984h4.062v1.576h-2.438v2.54h1.715v1.576h-1.715v2.716h2.563v1.576H71.136z"
							/>
						<path fill="#383433" d="M76.747,15.806v-1.401h-1.371v6.832h1.371v-1.419h-0.541v-1.577h2.166v3.538
							c0,0.561-0.488,1.033-1.084,1.033h-2.455c-0.576,0-1.082-0.473-1.082-1.033v-7.9c0-0.561,0.506-1.051,1.082-1.051h2.455
							c0.614,0,1.084,0.49,1.084,1.051v1.927H76.747z"/>
						<path fill="#383433" d="M80.809,21.236h1.625v1.576h-1.625V21.236z"/>
					</g>
				</g>
				<g display="none">
					<path display="inline" fill="#383433" d="M123.628,102.73v-0.49h-0.724v-0.877l0.724-0.699h1.625v12.262h-1.625V102.73z"/>
					<path display="inline" fill="#383433" d="M132.671,111.893c0,0.562-0.487,1.031-1.084,1.031h-2.455
						c-0.071,0-0.144,0-0.215-0.018c-0.506-0.088-0.867-0.525-0.867-1.018v-2.685h1.625v2.139h1.371v-3.959h-1.914
						c-0.575,0-1.082-0.475-1.082-1.03v-4.816c0.072-0.508,0.523-0.875,1.082-0.875h2.455c0.615,0,1.084,0.49,1.084,1.051V111.893z
						 M131.046,102.24h-1.371v3.572h1.371V102.24z"/>
					<path display="inline" fill="#383433" d="M140.089,111.893c0,0.562-0.487,1.031-1.084,1.031h-2.455
						c-0.071,0-0.143,0-0.215-0.018c-0.506-0.088-0.867-0.525-0.867-1.018v-2.685h1.625v2.139h1.371v-3.959h-1.914
						c-0.575,0-1.082-0.475-1.082-1.03v-4.816c0.072-0.508,0.523-0.875,1.082-0.875h2.455c0.615,0,1.084,0.49,1.084,1.051V111.893z
						 M138.464,102.24h-1.371v3.572h1.371V102.24z"/>
					<path display="inline" fill="#383433" d="M142.887,101.715c0-0.561,0.506-1.051,1.081-1.051h2.455
						c0.615,0,1.084,0.49,1.084,1.051v10.178c0,0.562-0.487,1.033-1.084,1.033h-2.455c-0.575,0-1.081-0.473-1.081-1.033V101.715z
						 M145.882,102.24h-1.37v4.098l1.37-3.15V102.24z M144.512,111.35h1.37v-4.135l-1.37,3.014V111.35z"/>
				</g>
			</g>
			<g enable-background="new    ">
				<path fill="#FFFFFF" d="M43.599,49.426l-7.505,1.99l-0.366-4.246c6.828-1.812,12.609-3.345,19.472-5.165l0.366,4.246
					l-7.505,1.991l1.753,20.521l-4.462,1.185L43.599,49.426z"/>
				<path fill="#FFFFFF" d="M62.062,40.185l0.835,9.694c1.314-2.411,3.088-3.497,4.981-3.999c4.732-1.256,7.139,1.544,7.561,6.678
					l0.777,9.202l-4.125,1.094l-0.768-9.167c-0.266-3.187-1.654-4.193-4.189-3.521c-2.435,0.646-3.949,3.254-3.726,5.873
					l0.772,8.913l-4.124,1.094l-2.119-24.767L62.062,40.185z"/>
				<path fill="#FFFFFF" d="M80.333,35.268c1.081-0.287,2.225,0.205,2.574,1.523c0.494,1.859-0.727,3.124-2.146,3.5
					c-1.149,0.305-2.284-0.154-2.634-1.472C77.624,36.926,78.979,35.626,80.333,35.268z M78.942,43.125l1.499,17.514l4.124-1.094
					l-1.498-17.514L78.942,43.125z"/>
				<path fill="#FFFFFF" d="M98.356,42.788c-1.276-0.855-2.659-0.887-4.248-0.465c-2.13,0.564-3.167,1.562-2.854,2.747
					c0.242,0.913,1.273,1.254,3.236,0.878c2.885-0.584,6.643-0.604,7.535,3.175c0.867,3.677-1.844,6.821-6.543,8.067
					c-2.628,0.733-5.657,0.633-7.99-1.065l1.699-3.417c1.663,1.223,4.175,1.281,5.975,0.838c1.666-0.405,3.228-1.615,2.851-3.035
					c-0.26-0.979-1.351-1.27-3.481-0.849c-2.894,0.551-6.464,0.049-7.313-3.018c-1.2-4.384,3.208-7.001,6.521-7.88
					c2.604-0.69,4.598-0.677,6.668,0.583L98.356,42.788z"/>
				<path fill="#FFFFFF" d="M113.968,26.345c1.082-0.287,2.226,0.205,2.575,1.523c0.493,1.859-0.729,3.124-2.146,3.5
					c-1.147,0.305-2.281-0.154-2.635-1.472C111.26,28.004,112.615,26.704,113.968,26.345z M112.578,34.203l1.498,17.514l4.124-1.094
					l-1.498-17.513L112.578,34.203z"/>
				<path fill="#FFFFFF" d="M131.992,33.866c-1.276-0.855-2.66-0.887-4.249-0.465c-2.13,0.565-3.167,1.563-2.854,2.747
					c0.242,0.913,1.273,1.254,3.236,0.879c2.885-0.584,6.643-0.605,7.536,3.175c0.866,3.677-1.845,6.82-6.544,8.067
					c-2.627,0.733-5.657,0.633-7.989-1.064l1.698-3.417c1.662,1.223,4.176,1.281,5.977,0.838c1.665-0.405,3.227-1.614,2.85-3.034
					c-0.26-0.98-1.351-1.27-3.479-0.85c-2.896,0.551-6.464,0.05-7.312-3.018c-1.198-4.385,3.209-7.001,6.521-7.88
					c2.604-0.69,4.599-0.677,6.668,0.583L131.992,33.866z"/>
			</g>
			<g enable-background="new    ">
				<path fill="#FFFFFF" d="M59.279,104.639l-0.688-6.318l-7.303,2.129l0.688,6.314l-2.802,0.816L47.46,91.958l2.802-0.815
					l0.719,6.584l7.303-2.125l-0.719-6.584l2.781-0.811l1.715,15.621L59.279,104.639z"/>
				<path fill="#FFFFFF" d="M75.827,96.758l-7.77,2.262l-0.946,3.315l-3.121,0.908l4.952-17.562l3.057-0.892l8.38,13.683
					l-2.972,0.862L75.827,96.758z M70.902,88.382l-2.013,7.563l5.52-1.606L70.902,88.382z"/>
				<path fill="#FFFFFF" d="M84.482,92.535l0.509,4.596l-2.802,0.814l-1.714-15.619c2.313-0.674,4.706-1.395,7.021-2.067
					c3.227-0.938,5.271,0.86,5.938,3.153c0.939,3.227-0.502,6.664-4.748,7.898L84.482,92.535z M84.201,89.83l4.204-1.223
					c1.996-0.582,2.73-2.407,2.322-3.973c-0.313-1.15-1.202-2.229-2.963-1.717l-4.204,1.227L84.201,89.83z"/>
				<path fill="#FFFFFF" d="M99.347,88.208l0.509,4.597l-2.802,0.814l-1.714-15.62c2.313-0.674,4.706-1.394,7.021-2.067
					c3.227-0.938,5.271,0.861,5.938,3.154c0.938,3.227-0.502,6.663-4.748,7.898L99.347,88.208z M99.066,85.504l4.204-1.224
					c1.996-0.581,2.73-2.407,2.322-3.97c-0.312-1.153-1.201-2.229-2.964-1.72l-4.203,1.228L99.066,85.504z"/>
				<path fill="#FFFFFF" d="M123.042,86.055l-11.124,3.238c-0.568-5.2-1.146-10.422-1.715-15.621l11.124-3.238l0.293,2.746
					l-8.343,2.43l0.41,3.703l8.045-2.342l0.312,2.74L114,82.055l0.382,3.526l8.345-2.429L123.042,86.055z"/>
				<path fill="#FFFFFF" d="M135.818,77.407l-0.531-3.646l-0.773-7.166l2.803-0.813l1.718,15.619l-2.271,0.66l-9.156-8.271
					l0.617,4.653l0.643,5.916l-2.805,0.815l-1.713-15.62l2.271-0.66L135.818,77.407z"/>
				<path fill="#FFFFFF" d="M142.581,80.367l-1.715-15.621l2.78-0.809l1.715,15.619L142.581,80.367z"/>
				<path fill="#FFFFFF" d="M158.668,70.756l-0.531-3.645l-0.773-7.167l2.805-0.816l1.715,15.621l-2.271,0.66l-9.154-8.273
					l0.618,4.656l0.641,5.916l-2.803,0.815l-1.715-15.621l2.271-0.66L158.668,70.756z"/>
				<path fill="#FFFFFF" d="M174.939,58.766c-1.105-0.714-2.643-0.844-3.938-0.467c-3.564,1.038-5.312,4.771-4.337,8.125
					c0.61,2.102,2.11,3.852,5.526,2.857c1.17-0.34,2.18-0.909,3.242-2.232l-0.309-2.881l-3.82,1.111l-0.295-2.516l6.368-1.854
					l0.72,6.584c-1.271,2.188-3,3.772-5.611,4.534c-4.799,1.396-7.52-0.989-8.48-4.303c-1.347-4.627,0.52-10.33,6.694-12.125
					c1.993-0.581,4.063-0.354,5.774,0.782L174.939,58.766z"/>
			</g>
		</g>
	</g>
	<g id="Layer_1_1_" display="inline">
	</g>
</g>
<g>
	<g>
		<path fill="#FFFFFF" d="M158.167,64.74c-2.948-1.898-2.987-5.062-0.084-7.031c2.903-1.967,2.581-4.557-0.716-5.751
			c-3.297-1.196-4.036-4.273-1.646-6.838c2.394-2.563,1.502-5.016-1.979-5.449c-3.479-0.43-4.887-3.265-3.124-6.296
			c1.761-3.034,0.347-5.224-3.144-4.874c-3.486,0.354-5.488-2.097-4.447-5.444c1.043-3.349-0.822-5.172-4.146-4.051
			s-5.818-0.821-5.55-4.319c0.271-3.495-1.953-4.859-4.942-3.024c-2.99,1.831-5.856,0.491-6.369-2.978
			c-0.516-3.469-2.986-4.3-5.494-1.851c-2.508,2.452-5.602,1.786-6.871-1.483c-1.274-3.267-3.868-3.528-5.771-0.582
			c-1.899,2.95-5.063,2.985-7.032,0.084c-1.966-2.903-4.555-2.583-5.75,0.715c-1.196,3.296-4.271,4.037-6.836,1.646
			c-2.566-2.392-5.016-1.5-5.447,1.979c-0.434,3.479-3.269,4.887-6.3,3.125c-3.033-1.761-5.225-0.348-4.873,3.14
			c0.354,3.489-2.096,5.491-5.445,4.447c-3.347-1.04-5.17,0.825-4.05,4.148c1.12,3.322-0.824,5.819-4.319,5.547
			c-3.496-0.27-4.857,1.954-3.025,4.946c1.83,2.991,0.491,5.857-2.978,6.37c-3.469,0.513-4.303,2.985-1.851,5.494
			c2.452,2.507,1.785,5.601-1.484,6.871c-3.267,1.274-3.529,3.868-0.581,5.767c2.949,1.902,2.986,5.063,0.082,7.034
			c-2.902,1.964-2.58,4.554,0.718,5.749c3.295,1.196,4.037,4.272,1.645,6.838c-2.392,2.563-1.502,5.017,1.979,5.448
			c3.479,0.434,4.887,3.266,3.123,6.299c-1.76,3.031-0.347,5.225,3.143,4.872c3.488-0.354,5.492,2.096,4.448,5.444
			c-1.042,3.346,0.823,5.17,4.146,4.047c3.324-1.116,5.819,0.824,5.549,4.32c-0.271,3.498,1.954,4.858,4.944,3.025
			c2.99-1.832,5.856-0.491,6.369,2.977c0.515,3.474,2.986,4.303,5.496,1.851c2.505-2.449,5.598-1.781,6.871,1.485
			c1.275,3.269,3.87,3.527,5.769,0.58c1.9-2.945,5.062-2.984,7.032-0.08c1.969,2.899,4.557,2.58,5.752-0.72
			c1.193-3.296,4.271-4.036,6.836-1.644c2.563,2.391,5.017,1.499,5.449-1.98c0.43-3.476,3.266-4.885,6.297-3.121
			c3.031,1.76,5.226,0.348,4.871-3.143c-0.354-3.49,2.098-5.493,5.443-4.449c3.35,1.044,5.172-0.82,4.055-4.146
			c-1.121-3.322,0.819-5.817,4.316-5.547c3.495,0.271,4.857-1.955,3.025-4.944c-1.832-2.988-0.492-5.854,2.977-6.37
			c3.469-0.514,4.301-2.984,1.852-5.492c-2.451-2.509-1.783-5.602,1.484-6.874S161.113,66.639,158.167,64.74z M101.042,113.913
			c-28.733,0-52.021-23.288-52.021-52.017c0-28.731,23.288-52.021,52.021-52.021c28.729,0,52.021,23.291,52.021,52.021
			C153.062,90.625,129.771,113.913,101.042,113.913z"/>
		<path fill="#FFFFFF" d="M101.042,12.425c-25.033,0-45.708,18.595-49,42.725c-0.043,0.174-0.074,0.351-0.12,0.524
			c-0.006,0.211-0.019,0.426-0.027,0.637c-0.205,1.835-0.322,3.693-0.322,5.585c0,27.32,22.146,49.465,49.469,49.465
			c27.321,0,49.468-22.146,49.468-49.465C150.512,34.573,128.363,12.425,101.042,12.425z M136.557,51.043l6.74,11.928l-6.74,11.932
			h9.744c-5.646,19.679-23.765,34.084-45.258,34.084c-21.496,0-39.613-14.405-45.26-34.084h9.6l-6.738-11.932l6.738-11.928H55.22
			c4.9-20.775,23.548-36.242,45.822-36.242c22.272,0,40.918,15.467,45.821,36.242H136.557z"/>
	</g>
</g>
<g>
	<g enable-background="new    ">
		<path fill="#FFFFFF" d="M68.764,60.316c0.966-0.144,2.018-0.644,2.769-1.077c0.064-0.053,0.129-0.084,0.172-0.09
			c0.15-0.022,0.214,0.14,0.214,0.312c0,0.129-0.043,0.307-0.086,0.399c-0.794,1.062-1.974,1.474-3.069,1.637
			c-2.082,0.309-5.259,0.093-5.259-2.933c0-2.599,2.619-3.674,4.744-3.99c2.64-0.392,5.344,1.869,7.941,1.483
			c0.236-0.035,0.515-0.098,0.751-0.176c0.494-0.846,1.138-1.629,1.975-2.333l0.301,0.642v0.365l-0.301,1.075
			c-0.215,0.269-0.408,0.512-0.58,0.795c-0.086,0.141-0.15,0.258-0.236,0.378c-1.009,1.782-1.331,3.805-1.846,5.728
			c0.73-0.237,1.502-0.438,2.275-0.553l0.064-0.01c0.794-3.166,1.91-6.123,2.726-7.682c0.193-0.265,0.408-0.404,0.622-0.436
			c0.644-0.096,0.987,0.819,0.987,1.528c-0.922,1.64-1.91,4.04-2.618,6.507c0.73,0.042,1.438,0.194,2.061,0.51
			c0.236,0.159,0.343,0.377,0.343,0.614c0,0.43-0.386,0.874-0.901,0.951c-0.043,0.006-0.064,0.009-0.107,0.016
			c-0.559-0.305-1.159-0.473-1.803-0.527c-0.3,1.396-0.494,2.778-0.494,4.002c0,3.758,0.601,5.471,3.627,5.021
			c-0.58,0.902-1.353,1.532-2.318,1.826c-2.296,0.233-3.176-2.276-3.176-5.196c0-1.695,0.257-3.645,0.687-5.599l-0.129,0.02
			c-0.73,0.108-1.481,0.306-2.211,0.521c-0.365,3.983-4.014,9.055-7.147,9.521c-1.052,0.156-2.104-0.46-2.104-1.362
			c0-4.422,4.035-7.491,8.006-9.004c0.408-1.627,0.729-3.329,1.245-4.93c-2.618,0.304-5.924-2.684-8.649-2.279
			c-1.116,0.166-2.855,1.004-2.855,2.442C64.385,60.171,66.896,60.594,68.764,60.316z M69.558,72.113
			c1.889-0.28,4.615-5.086,4.722-7.55c-4.121,1.192-6.159,4.843-6.159,6.497C68.12,72.025,68.742,72.234,69.558,72.113z"/>
	</g>
	<g enable-background="new    ">
		<path fill="#FFFFFF" d="M88.291,66.016c-1.042,1.867-2.175,3.746-3.291,3.912c-0.893,0.133-1.302-0.681-1.302-1.518
			c0-3.367,2.864-6.229,4.964-6.541c0.446-0.066,0.669,0.049,0.669,0.254c0,0.186-0.204,0.458-0.576,0.699
			c-1.915,0.75-3.292,2.498-3.292,4.637c0,0.726,0.038,0.943,0.223,0.915c0.726-0.107,2.604-3.958,3.887-5.915
			c0.111-0.165,0.316-0.233,0.54-0.267c0.409-0.061,0.557-0.064,0.744,0.188c-0.279,1.009-1.339,3.176-1.339,4.44
			c0,0.595,0.167,1.128,0.911,1.018c0.074-0.048,0.13-0.057,0.205-0.067c0.223-0.033,0.372,0.093,0.428,0.346
			c0,0.335-0.948,1.052-1.655,1.157c-1.042,0.154-1.395-0.481-1.395-1.43C88.012,67.305,88.124,66.674,88.291,66.016z"/>
		<path fill="#FFFFFF" d="M94.947,62.646c0,0.261-0.037,0.527-0.074,0.83c0.837-1.334,1.729-2.489,2.622-2.621
			c0.893-0.133,1.32,0.641,1.32,1.459c0,3.236-2.9,5.992-5.02,6.307l-0.149,0.022c-0.577,1.648-0.484,4.61-2.046,4.842
			c-0.26,0.038-0.372-0.148-0.372-0.465c0-0.967,0.893-3.165,0.967-4.31c-0.39,0.039-0.576-0.194-0.576-0.492
			c0-0.167,0.074-0.383,0.223-0.553c0.167,0.067,0.334,0.191,0.54,0.18l0.874-3.832c0-1.412-0.632-1.059-0.632-1.207
			c0-0.875,0.985-1.226,1.785-1.419C94.966,61.305,94.892,62.208,94.947,62.646z M93.851,67.646
			c1.859-0.761,3.179-2.406,3.179-4.416c0-0.688-0.037-0.906-0.241-0.876c-0.483,0.072-1.488,1.747-2.473,3.399
			C94.167,66.315,94,66.936,93.851,67.646z"/>
		<path fill="#FFFFFF" d="M102.664,61.501c0,0.261-0.037,0.527-0.074,0.829c0.836-1.333,1.729-2.488,2.621-2.621
			s1.32,0.641,1.32,1.459c0,3.236-2.9,5.992-5.02,6.307l-0.149,0.022c-0.577,1.648-0.484,4.609-2.046,4.842
			c-0.26,0.039-0.372-0.148-0.372-0.465c0-0.967,0.892-3.166,0.967-4.311c-0.39,0.039-0.576-0.193-0.576-0.491
			c0-0.167,0.074-0.384,0.223-0.554c0.167,0.068,0.334,0.191,0.54,0.181l0.874-3.832c0-1.413-0.632-1.06-0.632-1.208
			c0-0.874,0.985-1.225,1.786-1.418C102.683,60.159,102.607,61.062,102.664,61.501z M101.567,66.5
			c1.859-0.76,3.179-2.406,3.179-4.415c0-0.688-0.037-0.906-0.241-0.876c-0.483,0.072-1.487,1.746-2.474,3.399
			C101.883,65.17,101.715,65.79,101.567,66.5z"/>
		<path fill="#FFFFFF" d="M108.316,64.251c0.074,0.585,0.335,1.048,0.967,0.954c0.8-0.119,1.562-1.422,2.064-1.497
			c0.167-0.024,0.223,0.116,0.223,0.321c0,0.428-1.506,2.213-2.789,2.404c-1.637,0.242-2.157-0.572-2.157-2.117
			c0-2.417,2.12-5.318,4.463-5.666c0.204-0.03,0.391-0.021,0.54,0.051c0.501,0.074,0.631,0.353,0.631,0.688
			C112.258,60.598,109.581,63.134,108.316,64.251z M108.298,63.398c0.726-0.721,2.361-2.639,2.361-3.55
			c0-0.13-0.074-0.193-0.224-0.171C109.357,59.838,108.316,62.224,108.298,63.398z"/>
		<path fill="#FFFFFF" d="M117.056,60.629c-0.075-0.194-0.167-0.254-0.261-0.241c-0.093,0.014-0.223,0.145-0.334,0.329
			c-0.781,1.603-1.265,3.461-2.622,4.741c-0.149,0.171-0.316,0.232-0.483,0.258c-0.373,0.055-0.726-0.172-0.726-0.6
			c0-1.302,1.022-3.09,1.022-4.411c0-1.395-0.65-1.056-0.65-1.187c0-0.874,1.004-1.228,1.804-1.421
			c0.539-0.08,0.483,0.803,0.539,1.241c0,1.078-0.335,2.281-0.8,3.596c1.303-1.439,1.785-3.483,3.273-4.763
			c0.204-0.273,0.817-0.587,1.06-0.624c0.187-0.027,0.261,0.111,0.261,0.333c0,0.931-0.986,3.402-0.986,4.704
			c0,0.596,0.168,1.129,0.912,1.019c0.074-0.048,0.148-0.06,0.204-0.067c0.224-0.033,0.372,0.093,0.446,0.343
			c0,0.335-0.967,1.055-1.674,1.159c-1.022,0.152-1.375-0.484-1.375-1.432C116.666,62.77,116.814,61.669,117.056,60.629z"/>
		<path fill="#FFFFFF" d="M119.9,64.038c0-1.302,1.023-3.091,1.023-4.412c0-1.395-0.651-1.056-0.651-1.187
			c0-0.874,1.004-1.227,1.804-1.421c0.539-0.08,0.483,0.803,0.539,1.241c0,1.767-1.115,4.034-1.357,5.893
			c-0.148,0.302-0.391,0.449-0.632,0.484C120.254,64.692,119.9,64.466,119.9,64.038z M122.057,55.85
			c-0.39,0.058-0.631-0.203-0.631-0.594c0-0.559,0.576-1.276,1.152-1.362c0.371-0.055,0.613,0.187,0.613,0.578
			C123.191,55.086,122.634,55.764,122.057,55.85z"/>
		<path fill="#FFFFFF" d="M127.691,59.05c-0.074-0.194-0.168-0.254-0.26-0.241c-0.094,0.014-0.224,0.145-0.336,0.329
			c-0.78,1.603-1.264,3.461-2.621,4.742c-0.149,0.171-0.316,0.232-0.483,0.257c-0.372,0.056-0.726-0.171-0.726-0.599
			c0-1.302,1.023-3.09,1.023-4.412c0-1.395-0.651-1.056-0.651-1.187c0-0.874,1.004-1.227,1.804-1.421
			c0.539-0.08,0.484,0.803,0.539,1.241c0,1.078-0.334,2.281-0.799,3.597c1.301-1.439,1.785-3.483,3.272-4.764
			c0.204-0.272,0.817-0.587,1.06-0.623c0.186-0.028,0.26,0.111,0.26,0.333c0,0.931-0.985,3.402-0.985,4.704
			c0,0.595,0.167,1.129,0.911,1.018c0.074-0.048,0.148-0.059,0.205-0.067c0.223-0.033,0.371,0.093,0.445,0.343
			c0,0.335-0.967,1.055-1.672,1.159c-1.023,0.151-1.377-0.483-1.377-1.432C127.301,61.191,127.449,60.09,127.691,59.05z"/>
		<path fill="#FFFFFF" d="M133.697,62.938c-0.521,0.653-1.525,1.769-1.525,2.532c0,0.242,0.074,0.658,0.391,0.611
			c1.413-0.209,1.58-3.359,2.213-6.373c-0.949,1.629-1.952,3.117-2.938,3.264c-0.893,0.132-1.303-0.681-1.303-1.518
			c0-3.367,2.864-6.229,4.966-6.541c0.446-0.066,0.669,0.049,0.669,0.254c0,0.186-0.205,0.458-0.576,0.7
			c-1.916,0.749-3.291,2.498-3.291,4.636c0,0.726,0.037,0.942,0.223,0.915c0.613-0.091,2.008-2.772,3.198-4.809
			c0.224-0.461,0.502-0.912,0.818-1.293c0.093-0.014,0.186-0.046,0.298-0.062c0.297-0.044,0.557-0.026,0.669,0.291
			c-1.524,4.059-2.083,11.693-5.542,12.207c-0.929-0.16-1.301-0.682-1.301-1.352C130.666,65.025,132.303,63.146,133.697,62.938z"/>
	</g>
	<g>
		<g>
			<path fill="#FFFFFF" d="M80.706,45.99c0,0.297,0.073,0.556,0.218,0.774c0.146,0.22,0.344,0.406,0.594,0.562
				c0.25,0.156,0.54,0.279,0.869,0.369c0.329,0.09,0.677,0.155,1.046,0.195c0.369,0.041,0.745,0.054,1.128,0.041
				c0.382-0.013,0.75-0.045,1.103-0.098c0.271-0.04,0.544-0.101,0.823-0.183c0.277-0.082,0.552-0.177,0.823-0.285
				c0.27-0.108,0.531-0.22,0.782-0.335c0.25-0.115,0.484-0.229,0.701-0.342c0.081-0.053,0.149-0.084,0.203-0.092
				c0.082-0.012,0.141,0.013,0.178,0.075c0.037,0.062,0.056,0.141,0.056,0.236c0,0.067-0.009,0.138-0.025,0.212
				c-0.018,0.074-0.04,0.14-0.067,0.198c-0.224,0.27-0.472,0.5-0.747,0.69c-0.275,0.189-0.562,0.353-0.864,0.488
				c-0.301,0.136-0.609,0.245-0.925,0.326c-0.314,0.081-0.627,0.144-0.939,0.19c-0.393,0.058-0.813,0.099-1.26,0.121
				c-0.447,0.022-0.891,0.012-1.332-0.031c-0.44-0.043-0.863-0.126-1.27-0.248c-0.407-0.124-0.764-0.3-1.072-0.533
				c-0.309-0.231-0.555-0.526-0.741-0.885c-0.187-0.358-0.279-0.792-0.279-1.299c0-0.434,0.078-0.83,0.233-1.188
				c0.156-0.358,0.366-0.679,0.63-0.962c0.265-0.283,0.573-0.534,0.924-0.751c0.352-0.219,0.729-0.407,1.128-0.564
				c0.4-0.158,0.81-0.29,1.229-0.396c0.42-0.106,0.83-0.188,1.229-0.249c0.495-0.073,0.993-0.081,1.494-0.023
				s1.002,0.151,1.504,0.28c0.501,0.128,1.002,0.271,1.503,0.426c0.501,0.157,1.002,0.299,1.504,0.427
				c0.501,0.129,0.999,0.222,1.493,0.281c0.495,0.059,0.986,0.051,1.474-0.021c0.433-0.064,0.86-0.192,1.281-0.384
				c0.419-0.191,0.836-0.466,1.249-0.825l0.489,0.344c-0.21,0.513-0.436,0.953-0.676,1.32c-0.24,0.367-0.498,0.672-0.772,0.917
				c-0.274,0.244-0.561,0.434-0.859,0.569c-0.298,0.136-0.609,0.229-0.935,0.277c-0.495,0.073-1.011,0.06-1.55-0.039
				c-0.538-0.1-1.086-0.242-1.646-0.426c-0.559-0.186-1.125-0.391-1.701-0.617c-0.576-0.226-1.146-0.43-1.712-0.614
				c-0.565-0.184-1.126-0.324-1.681-0.421c-0.556-0.096-1.095-0.106-1.615-0.029c-0.312,0.047-0.654,0.137-1.027,0.27
				c-0.373,0.134-0.721,0.306-1.046,0.521c-0.325,0.215-0.598,0.467-0.818,0.757C80.815,45.306,80.706,45.63,80.706,45.99z"/>
			<path fill="#FFFFFF" d="M92.283,58.2c0-0.224,0.021-0.46,0.061-0.71c0.041-0.25,0.074-0.478,0.101-0.685
				c0.021-0.599,0.086-1.252,0.199-1.96c0.111-0.708,0.262-1.438,0.452-2.191c0.19-0.753,0.411-1.512,0.666-2.278
				c0.255-0.766,0.532-1.504,0.833-2.217c0.301-0.713,0.624-1.383,0.965-2.012c0.342-0.63,0.694-1.186,1.057-1.667
				c0.362-0.48,0.731-0.871,1.107-1.17c0.376-0.299,0.747-0.476,1.113-0.531c0.209-0.031,0.377-0.014,0.503,0.052
				c0.125,0.067,0.22,0.161,0.285,0.283c0.064,0.123,0.105,0.262,0.122,0.419c0.016,0.156,0.025,0.309,0.025,0.458
				c0,0.345-0.086,0.742-0.259,1.187c-0.173,0.446-0.4,0.916-0.681,1.412c-0.281,0.497-0.599,1.003-0.955,1.524
				c-0.355,0.52-0.713,1.024-1.072,1.515c-0.358,0.49-0.706,0.955-1.042,1.394c-0.335,0.439-0.625,0.823-0.869,1.15l-0.437,2.107
				l-0.041,0.891c0.209-0.309,0.421-0.64,0.634-0.994c0.214-0.354,0.431-0.706,0.65-1.056c0.221-0.352,0.444-0.689,0.671-1.014
				c0.227-0.325,0.457-0.617,0.691-0.875c0.233-0.257,0.469-0.472,0.706-0.643s0.478-0.274,0.722-0.311
				c0.204-0.03,0.345,0.004,0.427,0.104c0.081,0.1,0.122,0.248,0.122,0.444c0,0.19-0.032,0.42-0.096,0.69
				c-0.065,0.271-0.146,0.566-0.244,0.885c-0.098,0.319-0.203,0.657-0.315,1.012c-0.112,0.355-0.217,0.711-0.315,1.068
				c-0.099,0.357-0.179,0.708-0.244,1.052c-0.064,0.345-0.096,0.669-0.096,0.974c0,0.251,0.006,0.505,0.02,0.759
				c0.013,0.255,0.061,0.482,0.143,0.68c0.081,0.197,0.208,0.352,0.381,0.461c0.173,0.111,0.422,0.141,0.747,0.093
				c0.149-0.022,0.301-0.058,0.458-0.108l0.07,0.203c0,0.128-0.068,0.267-0.203,0.416c-0.136,0.149-0.3,0.289-0.494,0.419
				c-0.193,0.13-0.397,0.243-0.614,0.34c-0.217,0.097-0.407,0.157-0.569,0.181c-0.332,0.05-0.608,0.013-0.828-0.11
				c-0.221-0.123-0.397-0.306-0.529-0.547s-0.227-0.528-0.284-0.861c-0.058-0.333-0.087-0.689-0.087-1.069
				c0-0.354,0.021-0.716,0.061-1.092c0.041-0.375,0.093-0.738,0.158-1.09c0.064-0.352,0.135-0.677,0.213-0.977
				c0.078-0.3,0.157-0.557,0.238-0.771l-0.152-0.07c-0.23,0.292-0.449,0.631-0.655,1.017c-0.207,0.386-0.405,0.784-0.594,1.19
				c-0.19,0.408-0.375,0.813-0.555,1.216c-0.179,0.402-0.358,0.765-0.538,1.086c-0.179,0.321-0.362,0.587-0.548,0.797
				c-0.187,0.211-0.381,0.332-0.584,0.362c-0.136,0.02-0.25,0.013-0.34-0.021c-0.092-0.034-0.165-0.089-0.219-0.166
				c-0.054-0.076-0.092-0.171-0.112-0.283C92.292,58.449,92.283,58.329,92.283,58.2z M97.983,45.1c0-0.122-0.022-0.215-0.066-0.279
				s-0.114-0.09-0.208-0.075c-0.095,0.014-0.211,0.127-0.35,0.341c-0.139,0.214-0.285,0.49-0.437,0.827
				c-0.153,0.337-0.311,0.721-0.473,1.147c-0.162,0.426-0.318,0.867-0.467,1.319c-0.149,0.453-0.285,0.896-0.406,1.331
				c-0.123,0.435-0.22,0.827-0.295,1.177c0.183-0.231,0.378-0.508,0.584-0.833c0.207-0.325,0.41-0.673,0.61-1.041
				c0.2-0.368,0.391-0.745,0.574-1.132c0.183-0.386,0.344-0.755,0.482-1.108c0.139-0.353,0.249-0.674,0.33-0.963
				C97.941,45.52,97.983,45.283,97.983,45.1z"/>
			<path fill="#FFFFFF" d="M100.625,57.977c-0.204,0.031-0.391-0.014-0.56-0.135c-0.169-0.121-0.254-0.302-0.254-0.546
				c0-0.366,0.059-0.756,0.178-1.174c0.119-0.417,0.249-0.843,0.391-1.277c0.142-0.434,0.272-0.863,0.392-1.287
				c0.118-0.425,0.178-0.82,0.178-1.185c0-0.393-0.037-0.675-0.112-0.847c-0.074-0.171-0.156-0.288-0.244-0.35
				c-0.089-0.062-0.169-0.09-0.244-0.085c-0.075,0.004-0.112-0.015-0.112-0.056c0-0.243,0.063-0.453,0.188-0.631
				c0.125-0.178,0.286-0.329,0.483-0.453c0.196-0.125,0.413-0.227,0.65-0.31c0.237-0.083,0.466-0.15,0.691-0.205
				c0.148-0.022,0.262,0.016,0.34,0.112c0.078,0.097,0.135,0.22,0.168,0.371c0.034,0.151,0.055,0.312,0.061,0.484
				c0.009,0.171,0.019,0.318,0.031,0.437c0,0.495-0.065,1.018-0.197,1.569c-0.133,0.551-0.284,1.112-0.459,1.684
				c-0.172,0.571-0.342,1.14-0.512,1.708c-0.169,0.566-0.288,1.113-0.355,1.637c-0.081,0.168-0.184,0.295-0.31,0.381
				C100.89,57.904,100.76,57.957,100.625,57.977z M100.625,57.977c-0.204,0.031-0.391-0.014-0.56-0.135
				c-0.169-0.121-0.254-0.302-0.254-0.546c0-0.366,0.059-0.756,0.178-1.174c0.119-0.417,0.249-0.843,0.391-1.277
				c0.142-0.434,0.272-0.863,0.392-1.287c0.118-0.425,0.178-0.82,0.178-1.185c0-0.393-0.037-0.675-0.112-0.847
				c-0.074-0.171-0.156-0.288-0.244-0.35c-0.089-0.062-0.169-0.09-0.244-0.085c-0.075,0.004-0.112-0.015-0.112-0.056
				c0-0.243,0.063-0.453,0.188-0.631c0.125-0.178,0.286-0.329,0.483-0.453c0.196-0.125,0.413-0.227,0.65-0.31
				c0.237-0.083,0.466-0.15,0.691-0.205c0.148-0.022,0.262,0.016,0.34,0.112c0.078,0.097,0.135,0.22,0.168,0.371
				c0.034,0.151,0.055,0.312,0.061,0.484c0.009,0.171,0.019,0.318,0.031,0.437c0,0.495-0.065,1.018-0.197,1.569
				c-0.133,0.551-0.284,1.112-0.459,1.684c-0.172,0.571-0.342,1.14-0.512,1.708c-0.169,0.566-0.288,1.113-0.355,1.637
				c-0.081,0.168-0.184,0.295-0.31,0.381C100.89,57.904,100.76,57.957,100.625,57.977z M100.625,57.977
				c-0.204,0.031-0.391-0.014-0.56-0.135c-0.169-0.121-0.254-0.302-0.254-0.546c0-0.366,0.059-0.756,0.178-1.174
				c0.119-0.417,0.249-0.843,0.391-1.277c0.142-0.434,0.272-0.863,0.392-1.287c0.118-0.425,0.178-0.82,0.178-1.185
				c0-0.393-0.037-0.675-0.112-0.847c-0.074-0.171-0.156-0.288-0.244-0.35c-0.089-0.062-0.169-0.09-0.244-0.085
				c-0.075,0.004-0.112-0.015-0.112-0.056c0-0.243,0.063-0.453,0.188-0.631c0.125-0.178,0.286-0.329,0.483-0.453
				c0.196-0.125,0.413-0.227,0.65-0.31c0.237-0.083,0.466-0.15,0.691-0.205c0.148-0.022,0.262,0.016,0.34,0.112
				c0.078,0.097,0.135,0.22,0.168,0.371c0.034,0.151,0.055,0.312,0.061,0.484c0.009,0.171,0.019,0.318,0.031,0.437
				c0,0.495-0.065,1.018-0.197,1.569c-0.133,0.551-0.284,1.112-0.459,1.684c-0.172,0.571-0.342,1.14-0.512,1.708
				c-0.169,0.566-0.288,1.113-0.355,1.637c-0.081,0.168-0.184,0.295-0.31,0.381C100.89,57.904,100.76,57.957,100.625,57.977z
				 M100.625,57.977c-0.204,0.031-0.391-0.014-0.56-0.135c-0.169-0.121-0.254-0.302-0.254-0.546c0-0.366,0.059-0.756,0.178-1.174
				c0.119-0.417,0.249-0.843,0.391-1.277c0.142-0.434,0.272-0.863,0.392-1.287c0.118-0.425,0.178-0.82,0.178-1.185
				c0-0.393-0.037-0.675-0.112-0.847c-0.074-0.171-0.156-0.288-0.244-0.35c-0.089-0.062-0.169-0.09-0.244-0.085
				c-0.075,0.004-0.112-0.015-0.112-0.056c0-0.243,0.063-0.453,0.188-0.631c0.125-0.178,0.286-0.329,0.483-0.453
				c0.196-0.125,0.413-0.227,0.65-0.31c0.237-0.083,0.466-0.15,0.691-0.205c0.148-0.022,0.262,0.016,0.34,0.112
				c0.078,0.097,0.135,0.22,0.168,0.371c0.034,0.151,0.055,0.312,0.061,0.484c0.009,0.171,0.019,0.318,0.031,0.437
				c0,0.495-0.065,1.018-0.197,1.569c-0.133,0.551-0.284,1.112-0.459,1.684c-0.172,0.571-0.342,1.14-0.512,1.708
				c-0.169,0.566-0.288,1.113-0.355,1.637c-0.081,0.168-0.184,0.295-0.31,0.381C100.89,57.904,100.76,57.957,100.625,57.977z
				 M103.5,46.587c0,0.176-0.036,0.35-0.107,0.519c-0.069,0.17-0.166,0.329-0.283,0.475c-0.118,0.146-0.256,0.269-0.411,0.366
				c-0.156,0.097-0.314,0.158-0.478,0.182c-0.219,0.032-0.389-0.013-0.514-0.136c-0.126-0.125-0.188-0.294-0.188-0.511
				c0-0.156,0.037-0.319,0.111-0.489c0.075-0.17,0.173-0.329,0.295-0.476c0.122-0.146,0.259-0.272,0.411-0.376
				c0.152-0.103,0.311-0.168,0.473-0.192c0.217-0.032,0.387,0.012,0.508,0.133C103.438,46.202,103.5,46.37,103.5,46.587z"/>
			<path fill="#FFFFFF" d="M108.631,47.431c0.236-0.035,0.406-0.005,0.504,0.092s0.146,0.242,0.146,0.43
				c0,0.217-0.057,0.478-0.168,0.782c-0.111,0.305-0.248,0.612-0.41,0.92c-0.164,0.308-0.338,0.601-0.525,0.875
				c-0.186,0.275-0.354,0.495-0.502,0.659c0.236,0.317,0.416,0.668,0.537,1.053c0.123,0.385,0.186,0.787,0.186,1.207
				c0,0.42-0.063,0.851-0.188,1.293c-0.127,0.442-0.31,0.851-0.553,1.225c-0.246,0.375-0.546,0.694-0.9,0.957
				c-0.354,0.263-0.769,0.43-1.233,0.499c-0.183,0.027-0.381,0.029-0.594,0.007c-0.216-0.023-0.412-0.072-0.595-0.151
				c-0.185-0.078-0.338-0.185-0.463-0.322c-0.125-0.138-0.188-0.304-0.188-0.5c0-0.128,0.028-0.256,0.088-0.384
				c0.057-0.126,0.131-0.25,0.217-0.367c0.089-0.119,0.188-0.229,0.301-0.33c0.111-0.102,0.219-0.189,0.32-0.266
				c0.115-0.017,0.229,0.02,0.34,0.112c0.111,0.092,0.236,0.19,0.371,0.295c0.137,0.105,0.287,0.199,0.457,0.283
				c0.17,0.083,0.367,0.108,0.59,0.074c0.148-0.022,0.273-0.066,0.377-0.132c0.1-0.065,0.178-0.143,0.232-0.233
				c0.055-0.089,0.094-0.185,0.116-0.286c0.023-0.102,0.037-0.201,0.037-0.295c0-0.204-0.051-0.415-0.147-0.633
				c-0.101-0.219-0.213-0.438-0.342-0.655c-0.127-0.218-0.255-0.432-0.382-0.64c-0.125-0.208-0.215-0.4-0.271-0.575
				c-0.338,0.247-0.695,0.467-1.075,0.663c-0.379,0.195-0.763,0.338-1.147,0.43c-0.277,0.041-0.416-0.01-0.416-0.152
				c0-0.074,0.028-0.158,0.086-0.251c0.059-0.093,0.145-0.166,0.26-0.216c0.765-0.181,1.514-0.482,2.246-0.903
				c-0.008-0.059-0.015-0.121-0.019-0.185c-0.002-0.064-0.004-0.13-0.004-0.198c0-0.419,0.06-0.863,0.179-1.327
				c0.118-0.464,0.291-0.896,0.518-1.296c0.229-0.399,0.51-0.743,0.85-1.03C107.801,47.672,108.189,47.496,108.631,47.431z
				 M108.225,48.801c0-0.081-0.012-0.145-0.035-0.192c-0.024-0.047-0.073-0.065-0.147-0.055c-0.074,0.011-0.146,0.07-0.219,0.175
				c-0.07,0.105-0.134,0.235-0.188,0.389c-0.055,0.154-0.096,0.323-0.127,0.506c-0.029,0.184-0.045,0.361-0.045,0.531
				c0,0.149,0.016,0.295,0.051,0.439c0.066-0.104,0.139-0.238,0.219-0.398c0.076-0.161,0.152-0.325,0.226-0.495
				c0.067-0.17,0.131-0.334,0.183-0.495C108.189,49.045,108.217,48.911,108.225,48.801z"/>
			<path fill="#FFFFFF" d="M114.631,55.896c-0.201,0.03-0.389-0.015-0.559-0.136c-0.168-0.12-0.252-0.302-0.252-0.546
				c0-0.365,0.059-0.756,0.178-1.174c0.117-0.417,0.248-0.843,0.391-1.277c0.144-0.434,0.273-0.863,0.391-1.288
				c0.119-0.424,0.179-0.819,0.179-1.185c0-0.393-0.037-0.675-0.11-0.847c-0.076-0.171-0.156-0.289-0.244-0.35
				c-0.088-0.061-0.168-0.089-0.244-0.085c-0.074,0.004-0.111-0.014-0.111-0.055c0-0.244,0.062-0.454,0.188-0.632
				c0.125-0.178,0.287-0.329,0.484-0.453c0.195-0.124,0.412-0.228,0.648-0.31c0.238-0.082,0.469-0.15,0.69-0.204
				c0.148-0.022,0.265,0.016,0.341,0.111c0.077,0.097,0.135,0.221,0.168,0.372c0.034,0.151,0.055,0.312,0.061,0.484
				c0.008,0.171,0.018,0.317,0.031,0.438c0,0.495-0.066,1.018-0.197,1.568c-0.133,0.551-0.285,1.112-0.457,1.684
				c-0.174,0.571-0.344,1.14-0.514,1.707c-0.17,0.567-0.289,1.113-0.355,1.637c-0.082,0.168-0.186,0.295-0.311,0.382
				C114.898,55.824,114.768,55.876,114.631,55.896z M117.508,44.506c0,0.176-0.035,0.35-0.107,0.52
				c-0.069,0.17-0.166,0.329-0.282,0.474c-0.119,0.146-0.257,0.269-0.412,0.366c-0.156,0.098-0.313,0.159-0.478,0.183
				c-0.217,0.032-0.389-0.014-0.514-0.137c-0.125-0.124-0.189-0.293-0.189-0.51c0-0.156,0.039-0.319,0.113-0.489
				s0.174-0.329,0.293-0.476c0.123-0.146,0.26-0.271,0.412-0.376c0.152-0.104,0.311-0.168,0.473-0.193
				c0.218-0.032,0.388,0.012,0.509,0.133C117.447,44.121,117.508,44.289,117.508,44.506z"/>
			<path fill="#FFFFFF" d="M122.639,45.35c0.238-0.035,0.406-0.005,0.504,0.093c0.099,0.097,0.146,0.241,0.146,0.429
				c0,0.218-0.057,0.479-0.168,0.782c-0.109,0.305-0.248,0.612-0.41,0.92c-0.162,0.309-0.338,0.601-0.523,0.876
				c-0.188,0.274-0.354,0.494-0.504,0.658c0.236,0.317,0.416,0.669,0.539,1.053c0.121,0.386,0.182,0.787,0.182,1.208
				s-0.061,0.852-0.186,1.292c-0.127,0.442-0.311,0.851-0.555,1.226s-0.543,0.694-0.898,0.957c-0.356,0.263-0.77,0.43-1.233,0.499
				c-0.187,0.028-0.384,0.029-0.597,0.007s-0.412-0.072-0.596-0.15c-0.182-0.078-0.336-0.186-0.461-0.323
				c-0.125-0.137-0.189-0.303-0.189-0.5c0-0.128,0.031-0.256,0.088-0.384c0.058-0.127,0.132-0.25,0.22-0.368
				s0.188-0.228,0.301-0.329c0.109-0.102,0.218-0.19,0.318-0.266c0.114-0.017,0.229,0.02,0.34,0.112
				c0.112,0.091,0.235,0.19,0.373,0.295c0.135,0.104,0.287,0.2,0.455,0.283c0.17,0.083,0.364,0.108,0.59,0.075
				c0.147-0.022,0.272-0.067,0.375-0.132c0.104-0.066,0.183-0.144,0.233-0.232c0.056-0.089,0.095-0.185,0.117-0.287
				c0.023-0.102,0.035-0.2,0.035-0.295c0-0.204-0.049-0.415-0.146-0.633c-0.098-0.218-0.213-0.438-0.342-0.656
				c-0.129-0.218-0.254-0.431-0.381-0.64c-0.125-0.208-0.215-0.399-0.27-0.574c-0.338,0.246-0.697,0.467-1.076,0.663
				c-0.379,0.195-0.762,0.337-1.148,0.43c-0.276,0.041-0.416-0.01-0.416-0.152c0-0.074,0.029-0.157,0.086-0.251
				c0.058-0.093,0.146-0.165,0.261-0.216c0.766-0.181,1.514-0.482,2.243-0.903c-0.006-0.06-0.01-0.122-0.014-0.186
				c-0.004-0.063-0.004-0.13-0.004-0.198c0-0.419,0.059-0.862,0.176-1.327c0.119-0.465,0.291-0.896,0.519-1.296
				c0.229-0.399,0.512-0.742,0.851-1.03C121.811,45.591,122.199,45.415,122.639,45.35z M122.232,46.721
				c0-0.082-0.012-0.146-0.035-0.193c-0.023-0.047-0.074-0.066-0.148-0.055c-0.074,0.011-0.146,0.07-0.217,0.176
				c-0.072,0.105-0.135,0.235-0.189,0.389c-0.055,0.153-0.096,0.322-0.127,0.506c-0.029,0.185-0.045,0.361-0.045,0.53
				c0,0.149,0.016,0.296,0.051,0.44c0.066-0.105,0.142-0.238,0.22-0.398c0.077-0.161,0.151-0.326,0.223-0.495
				c0.072-0.17,0.134-0.334,0.185-0.495C122.197,46.965,122.227,46.831,122.232,46.721z"/>
		</g>
		<path fill="#FFFFFF" d="M88.747,59.915c-0.204,0.03-0.39-0.015-0.559-0.136c-0.17-0.12-0.254-0.302-0.254-0.546
			c0-0.366,0.059-0.757,0.177-1.175c0.119-0.417,1.184-6.118,1.327-6.552c0.142-0.434,0.272-0.864,0.391-1.288
			c0.119-0.424,0.178-0.818,0.178-1.185c0-0.392-0.037-0.675-0.111-0.846c-0.075-0.172-0.156-0.289-0.245-0.35
			c-0.088-0.062-0.169-0.09-0.244-0.086c-0.075,0.005-0.112-0.014-0.112-0.054c0-0.244,0.062-0.455,0.188-0.633
			c0.125-0.177,0.287-0.329,0.482-0.452c0.196-0.125,0.414-0.228,0.65-0.311c0.238-0.082,0.468-0.15,0.692-0.204
			c0.148-0.022,0.262,0.016,0.34,0.112c0.078,0.097,0.134,0.221,0.167,0.372c0.034,0.15,0.054,0.312,0.061,0.483
			s0.017,0.317,0.03,0.438c0,0.495-0.065,1.018-0.198,1.569c-0.132,0.551-0.285,1.112-0.458,1.683
			c-0.172,0.571-1.278,6.416-1.448,6.982c-0.17,0.566-0.288,1.113-0.355,1.638c-0.082,0.168-0.185,0.295-0.31,0.382
			C89.013,59.841,88.882,59.895,88.747,59.915z M88.747,59.915c-0.204,0.03-0.39-0.015-0.559-0.136
			c-0.17-0.12-0.254-0.302-0.254-0.546c0-0.366,0.059-0.757,0.177-1.175c0.119-0.417,1.184-6.118,1.327-6.552
			c0.142-0.434,0.272-0.864,0.391-1.288c0.119-0.424,0.178-0.818,0.178-1.185c0-0.392-0.037-0.675-0.111-0.846
			c-0.075-0.172-0.156-0.289-0.245-0.35c-0.088-0.062-0.169-0.09-0.244-0.086c-0.075,0.005-0.112-0.014-0.112-0.054
			c0-0.244,0.062-0.455,0.188-0.633c0.125-0.177,0.287-0.329,0.482-0.452c0.196-0.125,0.414-0.228,0.65-0.311
			c0.238-0.082,0.468-0.15,0.692-0.204c0.148-0.022,0.262,0.016,0.34,0.112c0.078,0.097,0.134,0.221,0.167,0.372
			c0.034,0.15,0.054,0.312,0.061,0.483s0.017,0.317,0.03,0.438c0,0.495-0.065,1.018-0.198,1.569
			c-0.132,0.551-0.285,1.112-0.458,1.683c-0.172,0.571-1.278,6.416-1.448,6.982c-0.17,0.566-0.288,1.113-0.355,1.638
			c-0.082,0.168-0.185,0.295-0.31,0.382C89.013,59.841,88.882,59.895,88.747,59.915z M88.747,59.915
			c-0.204,0.03-0.39-0.015-0.559-0.136c-0.17-0.12-0.254-0.302-0.254-0.546c0-0.366,0.059-0.757,0.177-1.175
			c0.119-0.417,1.184-6.118,1.327-6.552c0.142-0.434,0.272-0.864,0.391-1.288c0.119-0.424,0.178-0.818,0.178-1.185
			c0-0.392-0.037-0.675-0.111-0.846c-0.075-0.172-0.156-0.289-0.245-0.35c-0.088-0.062-0.169-0.09-0.244-0.086
			c-0.075,0.005-0.112-0.014-0.112-0.054c0-0.244,0.062-0.455,0.188-0.633c0.125-0.177,0.287-0.329,0.482-0.452
			c0.196-0.125,0.414-0.228,0.65-0.311c0.238-0.082,0.468-0.15,0.692-0.204c0.148-0.022,0.262,0.016,0.34,0.112
			c0.078,0.097,0.134,0.221,0.167,0.372c0.034,0.15,0.054,0.312,0.061,0.483s0.017,0.317,0.03,0.438
			c0,0.495-0.065,1.018-0.198,1.569c-0.132,0.551-0.285,1.112-0.458,1.683c-0.172,0.571-1.278,6.416-1.448,6.982
			c-0.17,0.566-0.288,1.113-0.355,1.638c-0.082,0.168-0.185,0.295-0.31,0.382C89.013,59.841,88.882,59.895,88.747,59.915z
			 M88.747,59.915c-0.204,0.03-0.39-0.015-0.559-0.136c-0.17-0.12-0.254-0.302-0.254-0.546c0-0.366,0.059-0.757,0.177-1.175
			c0.119-0.417,0.783-3.929,1.327-6.552c0.091-0.441,0.568-2.106,0.568-2.473c0-0.392-0.037-0.675-0.111-0.846
			c-0.075-0.172-0.156-0.289-0.245-0.35c-0.088-0.062-0.169-0.09-0.244-0.086c-0.075,0.005-0.112-0.014-0.112-0.054
			c0-0.244,0.062-0.455,0.188-0.633c0.125-0.177,0.287-0.329,0.482-0.452c0.196-0.125,0.414-0.228,0.65-0.311
			c0.238-0.082,0.468-0.15,0.692-0.204c0.148-0.022,0.262,0.016,0.34,0.112c0.078,0.097,0.134,0.221,0.167,0.372
			c0.034,0.15,0.054,0.312,0.061,0.483s0.017,0.317,0.03,0.438c0,0.495-0.065,1.018-0.198,1.569
			c-0.132,0.551-1.736,8.099-1.905,8.665c-0.169,0.566-0.288,1.113-0.355,1.638c-0.082,0.168-0.185,0.295-0.31,0.382
			C89.013,59.841,88.882,59.895,88.747,59.915z"/>
	</g>
</g>
</svg>
